<svg xmlns="http://www.w3.org/2000/svg" data-name="Слой 2" viewBox="0 0 40 40"><g data-name="Слой 1"><path d="M40 20.01c0 .59-.01 1.19-.05 1.64-.02.23-.05.5-.1.78-.09.57-.22 1.19-.32 1.66-1.33 6.55-5.99 11.97-12.05 14.46-.03.01-.05.02-.08.03-1.37.56-2.82.96-4.31 1.2V25.8h4.68l.86-5.78h-5.54v-4.18c0-1.36 1.43-2.69 2.77-2.69h3V8.23c-3.64-.58-8.01-1.03-10.52 2.24-2.11 2.75-1.36 6.33-1.5 9.55h-5.07v5.78h5.07v13.98c-.72-.11-1.43-.27-2.13-.46-.03 0-.07-.02-.1-.03C7.55 37.31 1.92 31.43.42 24.16-2.58 9.57 10.65-3.07 25.06.66c7.28 1.89 13.08 8.1 14.57 15.46 0 .03.01.05.01.08q.225 1.11.3 2.25c.02.28.04.62.04.98v.59Z" style="fill:#3975e9"/><path d="M23.1 15.83v4.18h5.54l-.86 5.78H23.1v13.97c-1.02.16-2.07.24-3.13.24s-2.09-.08-3.11-.24V25.79h-5.07v-5.78h5.07c.13-3.23-.61-6.81 1.5-9.55 2.51-3.27 6.88-2.82 10.52-2.24v4.92h-3c-1.34 0-2.77 1.33-2.77 2.69Z" style="fill:#fff"/></g></svg>