<svg xmlns="http://www.w3.org/2000/svg" id="_Слой_2" data-name="Слой 2" viewBox="0 0 40 40"><defs><style>.cls-1{fill:#fefefe}</style></defs><g id="_Слой_1-2" data-name="Слой 1"><circle cx="20" cy="20" r="20" style="fill:#c32929"/><path d="M24.03 11.16v6.78c1.6-1.73 3.81-2.42 5.99-1.27 1 .53 1.86 2.17 1.86 3.33v8.83s-3.19.02-3.19 0v-8.45c0-.65-.44-1.26-.88-1.51-1.51-.84-3.25.22-3.58 1.84-.05.22-.18.78-.19 1.53v6.59s-3.19.01-3.19 0V11.16h3.19ZM11.39 11.15v6.78c1.6-1.73 3.81-2.42 5.99-1.27 1 .53 1.86 2.17 1.86 3.33v8.83s-3.19.02-3.19 0v-8.45c0-.65-.44-1.26-.88-1.51-1.51-.84-3.25.22-3.58 1.84-.05.22-.18.78-.19 1.53v6.59s-3.19.01-3.19 0V11.15h3.19Z" class="cls-1"/></g></svg>