<svg xmlns="http://www.w3.org/2000/svg" id="_Слой_2" data-name="Слой 2" viewBox="0 0 40 40"><defs><linearGradient id="_Безымянный_градиент_13" x1="7.58" x2="33.3" y1="2.43" y2="38.81" data-name="Безымянный градиент 13" gradientUnits="userSpaceOnUse"><stop offset="0" stop-color="#f7ed63"/><stop offset=".24" stop-color="#ef8a4e"/><stop offset=".39" stop-color="#dd626b"/><stop offset=".49" stop-color="#d54e7b"/><stop offset="1" stop-color="#0c27f5"/></linearGradient><style>.cls-1{fill:#fff}</style></defs><g id="_Слой_1-2" data-name="Слой 1"><rect width="40" height="40" rx="20" ry="20" style="fill:url(#_Безымянный_градиент_13)"/><path d="M24.71 32.16h-9.43c-4.11 0-7.45-3.34-7.45-7.45v-9.43c0-4.11 3.34-7.45 7.45-7.45h9.43c4.11 0 7.45 3.34 7.45 7.45v9.43c0 4.11-3.34 7.45-7.45 7.45m-9.42-22.5c-3.1 0-5.62 2.52-5.62 5.62v9.43c0 3.1 2.52 5.62 5.62 5.62h9.43c3.1 0 5.62-2.52 5.62-5.62v-9.43c0-3.1-2.52-5.62-5.62-5.62z" class="cls-1"/><path d="M20 26.15c-3.39 0-6.15-2.76-6.15-6.15s2.76-6.15 6.15-6.15 6.15 2.76 6.15 6.15-2.76 6.15-6.15 6.15m0-10.44a4.29 4.29 0 1 0 0 8.58c2.37 0 4.29-1.92 4.29-4.29s-1.92-4.29-4.29-4.29M28.42 13.18c0 .88-.72 1.6-1.6 1.6s-1.6-.72-1.6-1.6.72-1.6 1.6-1.6 1.6.72 1.6 1.6" class="cls-1"/></g></svg>