<svg xmlns="http://www.w3.org/2000/svg" width="305" height="23" fill="none"><path fill="#fff" d="M13.67 1.13v16.374h-2.824L3.412 7.555v9.949H0V1.129h2.847l7.412 9.95v-9.95zM20.246 16.683a7.8 7.8 0 0 1-2.915-3.027c-.7-1.29-1.062-2.729-1.062-4.341s.362-3.052 1.062-4.342 1.672-2.307 2.915-3.027c1.243-.744 2.644-1.092 4.18-1.092 1.537 0 2.938.373 4.18 1.092a7.8 7.8 0 0 1 2.915 3.027c.7 1.29 1.062 2.729 1.062 4.342s-.361 3.051-1.062 4.341a7.8 7.8 0 0 1-2.915 3.027c-1.242.744-2.62 1.092-4.18 1.092s-2.937-.372-4.18-1.092m6.575-2.803a4.7 4.7 0 0 0 1.672-1.861c.407-.794.61-1.712.61-2.704s-.203-1.91-.61-2.705a4.7 4.7 0 0 0-1.672-1.86c-.7-.447-1.514-.67-2.395-.67a4.45 4.45 0 0 0-2.395.67c-.723.446-1.265 1.066-1.672 1.86s-.61 1.712-.61 2.705c0 .992.203 1.91.61 2.704a4.7 4.7 0 0 0 1.672 1.86c.7.447 1.514.67 2.395.67a4.45 4.45 0 0 0 2.395-.67M49.033 1.13l-6.462 16.374h-3.412l-6.44-16.375h3.728l4.542 11.686 4.61-11.686zM59.608 13.977h-6.914l-1.333 3.498h-3.525l6.643-16.374h3.412l6.666 16.374h-3.615zM58.524 11.1 56.15 4.823l-2.372 6.276h4.745M72.126.135h3.05v21.882h-3.05zM91.648 17.032c-.723-.397-1.31-.992-1.762-1.736l.926-1.166c.814 1.34 1.898 2.01 3.209 2.01 1.853 0 2.78-1.192 2.78-3.598V2.618h-5.446V1.129h7.004v11.338c0 1.712-.361 3.002-1.107 3.87s-1.808 1.29-3.254 1.29c-.858 0-1.65-.198-2.372-.62zM116.595 5.196V17.5h-1.446v-2.257c-.407.744-.949 1.34-1.65 1.736-.7.397-1.491.62-2.395.62q-2.203 0-3.457-1.34c-.836-.892-1.266-2.207-1.266-3.944V5.171h1.514v6.971c0 1.29.294 2.283.882 2.953.587.67 1.423 1.017 2.485 1.017q1.762 0 2.779-1.191 1.017-1.19 1.017-3.275v-6.45h1.537M124.955 17.18c-.836-.298-1.491-.645-1.943-1.092l.678-1.315a5.7 5.7 0 0 0 1.763.993 6.6 6.6 0 0 0 2.214.397c1.017 0 1.785-.174 2.26-.521q.745-.522.745-1.489c0-.447-.135-.819-.406-1.067a3 3 0 0 0-1.017-.595 14 14 0 0 0-1.65-.397c-.904-.199-1.649-.372-2.192-.57-.565-.2-1.016-.522-1.423-.993-.384-.472-.588-1.117-.588-1.935 0-1.017.384-1.861 1.175-2.53.791-.646 1.876-.993 3.254-.993.723 0 1.446.099 2.169.322a6 6 0 0 1 1.785.819l-.655 1.34c-.926-.695-2.033-1.042-3.299-1.042-.971 0-1.695.198-2.192.57-.497.373-.723.869-.723 1.464q0 .708.407 1.117c.271.272.633.496 1.039.62.407.124.972.273 1.695.422.904.198 1.604.372 2.147.57.542.199.994.496 1.378.968.384.471.565 1.067.565 1.86 0 1.067-.407 1.936-1.22 2.556-.814.62-1.943.943-3.39.943a8.2 8.2 0 0 1-2.598-.422zM144.591 16.734a2.95 2.95 0 0 1-1.062.645c-.43.149-.859.223-1.311.223-1.062 0-1.853-.322-2.44-.943-.565-.62-.859-1.513-.859-2.654V6.562h-2.011V5.148h2.011v-2.68h1.514v2.68h3.412v1.414h-3.412v7.344c0 .744.158 1.29.497 1.662s.814.57 1.446.57c.317 0 .611-.05.904-.173.294-.1.543-.273.746-.472l.542 1.191zM167.662 6.288c.791.794 1.175 1.985 1.175 3.573v7.616h-1.446v-1.91a3.42 3.42 0 0 1-1.514 1.488c-.678.348-1.446.546-2.35.546-1.243 0-2.237-.322-2.983-.992-.745-.645-1.107-1.514-1.107-2.605 0-1.092.339-1.886 1.039-2.53.701-.646 1.786-.968 3.299-.968h3.548V9.76c0-1.066-.271-1.86-.813-2.431q-.815-.819-2.373-.819c-.701 0-1.401.124-2.056.397-.656.273-1.22.62-1.672 1.067l-.678-1.24a5.66 5.66 0 0 1 2.056-1.216c.791-.298 1.627-.422 2.508-.422 1.469 0 2.576.397 3.367 1.216zm-1.695 9.378q.915-.633 1.356-1.86v-2.01h-3.525c-1.921 0-2.87.744-2.87 2.208 0 .72.249 1.29.746 1.687.497.422 1.198.62 2.079.62s1.582-.223 2.192-.645zM185.739 6.437c.836.893 1.243 2.208 1.243 3.92v7.145h-1.514v-6.971c0-1.29-.294-2.258-.882-2.928-.587-.67-1.423-1.017-2.485-1.017-1.198 0-2.169.397-2.87 1.191-.7.794-1.062 1.886-1.062 3.25v6.45h-1.514V5.172h1.446V7.43c.407-.745.972-1.34 1.718-1.737a5.3 5.3 0 0 1 2.553-.62c1.401 0 2.531.446 3.344 1.34zM211.431 6.288c.791.794 1.175 1.985 1.175 3.573v7.616h-1.446v-1.91a3.42 3.42 0 0 1-1.514 1.488c-.678.348-1.446.546-2.35.546-1.243 0-2.237-.322-2.983-.992-.745-.645-1.107-1.514-1.107-2.605 0-1.092.339-1.886 1.039-2.53.701-.646 1.786-.968 3.299-.968h3.548V9.76c0-1.066-.271-1.86-.813-2.431q-.815-.819-2.373-.819c-.7 0-1.401.124-2.056.397-.656.273-1.22.62-1.672 1.067l-.678-1.24a5.66 5.66 0 0 1 2.056-1.216c.791-.298 1.627-.422 2.508-.422 1.469 0 2.576.397 3.367 1.216zm-1.717 9.378q.915-.633 1.355-1.86v-2.01h-3.525c-1.92 0-2.869.744-2.869 2.208 0 .72.248 1.29.745 1.687.498.422 1.198.62 2.079.62s1.582-.223 2.192-.645zM230.863 5.195v10.817c0 2.084-.475 3.647-1.401 4.64-.926 1.017-2.327 1.513-4.203 1.513a9.1 9.1 0 0 1-2.96-.496c-.926-.348-1.695-.794-2.26-1.39l.769-1.265a5.9 5.9 0 0 0 1.966 1.24 6.7 6.7 0 0 0 2.44.447c1.423 0 2.463-.372 3.141-1.092.678-.719.994-1.86.994-3.374v-1.563a4.96 4.96 0 0 1-1.853 1.787 5.4 5.4 0 0 1-2.531.62c-1.062 0-2.011-.248-2.869-.77-.859-.495-1.537-1.215-2.034-2.133s-.746-1.935-.746-3.101.249-2.183.746-3.076 1.152-1.613 2.011-2.11c.859-.495 1.808-.743 2.87-.743.949 0 1.807.198 2.576.62.768.422 1.378 1.017 1.853 1.836V5.245h1.446zm-3.548 9.775c.656-.372 1.153-.918 1.514-1.613.362-.694.543-1.463.543-2.332s-.181-1.637-.543-2.332c-.361-.67-.858-1.215-1.514-1.588a4.37 4.37 0 0 0-2.214-.57c-.836 0-1.537.198-2.192.57a3.77 3.77 0 0 0-1.514 1.588c-.361.695-.542 1.464-.542 2.332 0 .869.181 1.663.542 2.332a4 4 0 0 0 1.514 1.613 4.35 4.35 0 0 0 2.192.57c.813 0 1.536-.198 2.192-.57zM248.578 11.846H239.2c.091 1.29.543 2.307 1.334 3.101.813.794 1.83 1.19 3.073 1.19.7 0 1.333-.123 1.92-.396a4.1 4.1 0 0 0 1.514-1.216l.859 1.067c-.497.645-1.107 1.166-1.876 1.489-.745.347-1.559.52-2.463.52q-1.728 0-3.05-.818a5.73 5.73 0 0 1-2.079-2.233c-.497-.943-.745-2.034-.745-3.225s.248-2.283.723-3.225q.711-1.415 1.965-2.233a5.2 5.2 0 0 1 2.802-.794 5.2 5.2 0 0 1 2.802.794c.814.52 1.469 1.265 1.943 2.208.475.942.701 2.034.701 3.25v.52zm-8.135-4.193c-.723.77-1.152 1.737-1.243 2.952h7.954c-.09-1.215-.519-2.208-1.243-2.952-.723-.744-1.649-1.141-2.734-1.141s-1.988.372-2.711 1.141zM264.485 6.437c.836.893 1.243 2.208 1.243 3.92v7.145h-1.514v-6.971c0-1.29-.293-2.258-.881-2.928-.587-.67-1.424-1.017-2.486-1.017-1.197 0-2.169.397-2.869 1.191s-1.062 1.886-1.062 3.25v6.45h-1.514V5.172h1.446V7.43c.407-.745.972-1.34 1.717-1.737a5.3 5.3 0 0 1 2.554-.62c1.401 0 2.53.446 3.344 1.34zM275.285 16.808c-.881-.521-1.559-1.266-2.056-2.233s-.746-2.035-.746-3.25c0-1.216.249-2.283.746-3.225s1.175-1.688 2.056-2.233c.882-.521 1.876-.794 2.983-.794.972 0 1.83.198 2.598.62.769.422 1.356 1.017 1.808 1.811l-1.13.844a3.5 3.5 0 0 0-1.401-1.365 3.95 3.95 0 0 0-1.852-.446c-.814 0-1.537.198-2.192.595s-1.153.968-1.514 1.687c-.362.744-.542 1.563-.542 2.506s.18 1.786.542 2.506c.361.719.858 1.29 1.514 1.687a4.13 4.13 0 0 0 2.192.595 3.95 3.95 0 0 0 1.852-.447 3.5 3.5 0 0 0 1.401-1.364l1.13.844c-.452.793-1.039 1.389-1.808 1.81-.768.422-1.626.62-2.575.62-1.108 0-2.102-.272-2.983-.793zM298.582 5.196l-5.603 13.77c-.452 1.166-.972 1.96-1.582 2.456-.588.471-1.311.72-2.147.72-.542 0-1.039-.1-1.514-.274a3.4 3.4 0 0 1-1.22-.843l.701-1.24c.564.62 1.242.942 2.056.942.52 0 .949-.149 1.31-.471.362-.323.701-.844 1.017-1.588l.497-1.191-5.016-12.28h1.582l4.225 10.444 4.226-10.445h1.491zM303.057 17.227a1.3 1.3 0 0 1-.339-.918q0-.558.339-.893c.226-.248.497-.372.791-.372.293 0 .587.124.813.372q.339.372.339.893c0 .348-.113.67-.339.918a1.06 1.06 0 0 1-.813.372.98.98 0 0 1-.791-.372"/></svg>