<svg xmlns="http://www.w3.org/2000/svg" width="305" height="23" fill="none"><path fill="#1A1A18" d="M13.67.994V17.37h-2.824l-7.434-9.95v9.95H0V.994h2.847l7.412 9.949V.994zM20.246 16.547a7.8 7.8 0 0 1-2.915-3.027c-.7-1.29-1.062-2.729-1.062-4.341s.362-3.052 1.062-4.342 1.672-2.307 2.915-3.027C21.489 1.066 22.89.72 24.426.72c1.537 0 2.938.372 4.18 1.091a7.8 7.8 0 0 1 2.915 3.027c.7 1.29 1.062 2.73 1.062 4.342s-.361 3.051-1.062 4.342a7.8 7.8 0 0 1-2.915 3.026c-1.242.744-2.62 1.092-4.18 1.092s-2.937-.372-4.18-1.092m6.575-2.803a4.7 4.7 0 0 0 1.672-1.86c.407-.795.61-1.713.61-2.705 0-.993-.203-1.91-.61-2.704a4.7 4.7 0 0 0-1.672-1.861c-.7-.447-1.514-.67-2.395-.67a4.45 4.45 0 0 0-2.395.67c-.723.446-1.265 1.067-1.672 1.86s-.61 1.712-.61 2.705c0 .992.203 1.91.61 2.704a4.7 4.7 0 0 0 1.672 1.86c.7.447 1.514.67 2.395.67a4.45 4.45 0 0 0 2.395-.67M49.033.994 42.571 17.37h-3.412L32.719.994h3.728L40.99 12.68 45.599.994zM59.608 13.842h-6.914l-1.333 3.498h-3.525L54.479.966h3.412l6.666 16.374h-3.615zm-1.084-2.878L56.15 4.687l-2.372 6.277h4.745M72.126 0h3.05v21.882h-3.05zM91.648 16.897c-.723-.397-1.31-.992-1.762-1.737l.926-1.166c.814 1.34 1.898 2.01 3.209 2.01 1.853 0 2.78-1.19 2.78-3.597V2.483h-5.446V.994h7.004v11.338c0 1.712-.361 3.002-1.107 3.87s-1.808 1.29-3.254 1.29c-.858 0-1.65-.198-2.372-.62zM116.595 5.06v12.307h-1.446v-2.258c-.407.744-.949 1.34-1.65 1.737-.7.396-1.491.62-2.395.62q-2.203 0-3.457-1.34c-.836-.893-1.266-2.208-1.266-3.945V5.036h1.514v6.972c0 1.29.294 2.282.882 2.952.587.67 1.423 1.017 2.485 1.017q1.762 0 2.779-1.19 1.017-1.192 1.017-3.276v-6.45h1.537M124.955 17.045c-.836-.298-1.491-.646-1.943-1.092l.678-1.315a5.7 5.7 0 0 0 1.763.992c.7.248 1.446.397 2.214.397 1.017 0 1.785-.173 2.26-.52q.745-.521.745-1.49c0-.446-.135-.818-.406-1.066a3 3 0 0 0-1.017-.595 14 14 0 0 0-1.65-.397c-.904-.199-1.649-.373-2.192-.571-.565-.198-1.016-.521-1.423-.992-.384-.472-.588-1.117-.588-1.936 0-1.017.384-1.86 1.175-2.53.791-.645 1.876-.992 3.254-.992.723 0 1.446.099 2.169.322a6 6 0 0 1 1.785.819l-.655 1.34c-.926-.695-2.033-1.043-3.299-1.043-.971 0-1.695.199-2.192.571s-.723.868-.723 1.464q0 .707.407 1.116c.271.273.633.497 1.039.62.407.125.972.273 1.695.422.904.199 1.604.372 2.147.57.542.2.994.497 1.378.969.384.47.565 1.066.565 1.86 0 1.067-.407 1.935-1.22 2.556-.814.62-1.943.942-3.39.942a8.2 8.2 0 0 1-2.598-.421zM144.591 16.599a2.95 2.95 0 0 1-1.062.645c-.43.148-.859.223-1.311.223-1.062 0-1.853-.323-2.44-.943-.565-.62-.859-1.513-.859-2.655V6.427h-2.011V5.012h2.011V2.333h1.514v2.68h3.412v1.414h-3.412v7.343c0 .745.158 1.29.497 1.662.339.373.814.571 1.446.571.317 0 .611-.05.904-.174.294-.099.543-.273.746-.471l.542 1.19zM167.662 6.153c.791.794 1.175 1.985 1.175 3.572v7.617h-1.446v-1.91a3.42 3.42 0 0 1-1.514 1.488c-.678.347-1.446.546-2.35.546-1.243 0-2.237-.323-2.983-.992-.745-.646-1.107-1.514-1.107-2.606s.339-1.885 1.039-2.53c.701-.645 1.786-.968 3.299-.968h3.548v-.744c0-1.067-.271-1.86-.813-2.431q-.815-.819-2.373-.819c-.701 0-1.401.124-2.056.397-.656.273-1.22.62-1.672 1.067l-.678-1.24a5.66 5.66 0 0 1 2.056-1.216c.791-.298 1.627-.422 2.508-.422 1.469 0 2.576.397 3.367 1.216zm-1.695 9.378q.915-.633 1.356-1.86v-2.01h-3.525c-1.921 0-2.87.744-2.87 2.207 0 .72.249 1.29.746 1.688.497.421 1.198.62 2.079.62s1.582-.223 2.192-.645zM185.739 6.302c.836.893 1.243 2.208 1.243 3.92v7.145h-1.514v-6.971c0-1.29-.294-2.258-.882-2.928-.587-.67-1.423-1.017-2.485-1.017-1.198 0-2.169.397-2.87 1.19-.7.795-1.062 1.886-1.062 3.25v6.451h-1.514V5.037h1.446v2.257c.407-.744.972-1.34 1.718-1.736a5.3 5.3 0 0 1 2.553-.62c1.401 0 2.531.446 3.344 1.34zM211.431 6.153c.791.794 1.175 1.985 1.175 3.572v7.617h-1.446v-1.91a3.42 3.42 0 0 1-1.514 1.488c-.678.347-1.446.546-2.35.546-1.243 0-2.237-.323-2.983-.992-.745-.646-1.107-1.514-1.107-2.606s.339-1.885 1.039-2.53c.701-.645 1.786-.968 3.299-.968h3.548v-.744c0-1.067-.271-1.86-.813-2.431q-.815-.819-2.373-.819c-.7 0-1.401.124-2.056.397-.656.273-1.22.62-1.672 1.067L203.5 6.6a5.66 5.66 0 0 1 2.056-1.216c.791-.298 1.627-.422 2.508-.422 1.469 0 2.576.397 3.367 1.216zm-1.717 9.378q.915-.633 1.355-1.86v-2.01h-3.525c-1.92 0-2.869.744-2.869 2.207 0 .72.248 1.29.745 1.688.498.421 1.198.62 2.079.62s1.582-.223 2.192-.645zM230.863 5.06v10.816c0 2.084-.475 3.647-1.401 4.64-.926 1.017-2.327 1.513-4.203 1.513a9.1 9.1 0 0 1-2.96-.496c-.926-.347-1.695-.794-2.26-1.39l.769-1.265a5.9 5.9 0 0 0 1.966 1.24 6.7 6.7 0 0 0 2.44.447c1.423 0 2.463-.372 3.141-1.091.678-.72.994-1.861.994-3.374v-1.563a4.95 4.95 0 0 1-1.853 1.786 5.4 5.4 0 0 1-2.531.62c-1.062 0-2.011-.248-2.869-.769-.859-.496-1.537-1.216-2.034-2.134s-.746-1.935-.746-3.1c0-1.167.249-2.184.746-3.077s1.152-1.613 2.011-2.109 1.808-.744 2.87-.744c.949 0 1.807.198 2.576.62.768.422 1.378 1.017 1.853 1.836V5.109h1.446zm-3.548 9.774c.656-.372 1.153-.918 1.514-1.612.362-.695.543-1.464.543-2.332 0-.869-.181-1.638-.543-2.332-.361-.67-.858-1.216-1.514-1.588a4.37 4.37 0 0 0-2.214-.57c-.836 0-1.537.198-2.192.57a3.77 3.77 0 0 0-1.514 1.588c-.361.694-.542 1.463-.542 2.332s.181 1.662.542 2.332a4 4 0 0 0 1.514 1.612c.655.373 1.379.57 2.192.57s1.536-.197 2.192-.57zM248.578 11.71H239.2c.091 1.29.543 2.308 1.334 3.102.813.794 1.83 1.19 3.073 1.19.7 0 1.333-.123 1.92-.396a4.1 4.1 0 0 0 1.514-1.216l.859 1.067c-.497.645-1.107 1.166-1.876 1.488-.745.348-1.559.521-2.463.521q-1.728 0-3.05-.818a5.73 5.73 0 0 1-2.079-2.233c-.497-.943-.745-2.035-.745-3.225 0-1.191.248-2.283.723-3.226q.711-1.413 1.965-2.233a5.2 5.2 0 0 1 2.802-.793 5.2 5.2 0 0 1 2.802.793c.814.521 1.469 1.266 1.943 2.208.475.943.701 2.035.701 3.25v.521zm-8.135-4.192c-.723.769-1.152 1.736-1.243 2.952h7.954c-.09-1.216-.519-2.208-1.243-2.952-.723-.745-1.649-1.142-2.734-1.142s-1.988.373-2.711 1.142zM264.485 6.302c.836.893 1.243 2.208 1.243 3.92v7.145h-1.514v-6.971c0-1.29-.293-2.258-.881-2.928-.587-.67-1.424-1.017-2.486-1.017-1.197 0-2.169.397-2.869 1.19-.701.795-1.062 1.886-1.062 3.25v6.451h-1.514V5.037h1.446v2.257c.407-.744.972-1.34 1.717-1.736a5.3 5.3 0 0 1 2.554-.62c1.401 0 2.53.446 3.344 1.34zM275.285 16.672c-.881-.52-1.559-1.265-2.056-2.232s-.746-2.035-.746-3.25c0-1.216.249-2.283.746-3.226.497-.942 1.175-1.687 2.056-2.233.882-.52 1.876-.793 2.983-.793.972 0 1.83.198 2.598.62.769.422 1.356 1.017 1.808 1.81l-1.13.844a3.5 3.5 0 0 0-1.401-1.364 3.95 3.95 0 0 0-1.852-.447c-.814 0-1.537.199-2.192.596s-1.153.967-1.514 1.687c-.362.744-.542 1.563-.542 2.506s.18 1.786.542 2.505c.361.72.858 1.29 1.514 1.687a4.13 4.13 0 0 0 2.192.596c.655 0 1.288-.15 1.852-.447a3.5 3.5 0 0 0 1.401-1.364l1.13.843c-.452.794-1.039 1.39-1.808 1.811-.768.422-1.626.62-2.575.62-1.108 0-2.102-.272-2.983-.793zM298.582 5.062l-5.603 13.769c-.452 1.166-.972 1.96-1.582 2.456-.588.471-1.311.72-2.147.72a4.4 4.4 0 0 1-1.514-.273 3.4 3.4 0 0 1-1.22-.844l.701-1.24c.564.62 1.242.942 2.056.942.52 0 .949-.148 1.31-.471s.701-.844 1.017-1.588l.497-1.19-5.016-12.281h1.582l4.225 10.444 4.226-10.444h1.491zM303.057 17.092a1.3 1.3 0 0 1-.339-.918q0-.559.339-.894c.226-.248.497-.372.791-.372.293 0 .587.124.813.372q.339.372.339.894c0 .347-.113.67-.339.918a1.06 1.06 0 0 1-.813.372.98.98 0 0 1-.791-.372"/></svg>