<svg width="435" height="206" viewBox="0 0 435 206" fill="none" xmlns="http://www.w3.org/2000/svg">
<path d="M182.477 3.14648L182.477 202.403H144.775L45.5438 81.4581L45.5438 202.403H0L0 3.14648L38.0034 3.14648L136.933 124.091L136.933 3.14648L182.477 3.14648Z" fill="#1A1A18" fill-opacity="0.02"/>
<path d="M270 192.287C253.463 183.245 240.534 171.19 231.214 155.518C221.893 139.845 217.082 122.365 217.082 102.774C217.082 83.1838 221.893 65.7032 231.214 50.0308C240.534 34.3585 253.463 22.0015 270 13.2612C286.537 4.21947 305.179 0 325.624 0C346.07 0 364.711 4.52086 381.248 13.2612C397.785 22.3029 410.714 34.3585 420.035 50.0308C429.356 65.7032 434.166 83.1838 434.166 102.774C434.166 122.365 429.356 139.845 420.035 155.518C410.714 171.19 397.484 183.245 381.248 192.287C364.711 201.028 346.37 205.548 325.624 205.548C304.878 205.548 286.537 201.028 270 192.287ZM357.495 158.23C366.816 152.805 374.333 145.27 379.745 135.626C385.157 125.981 387.863 114.83 387.863 102.774C387.863 90.7186 385.157 79.5671 379.745 69.9226C374.333 60.2781 366.816 52.7434 357.495 47.3183C348.174 41.8933 337.35 39.1808 325.624 39.1808C313.898 39.1808 303.375 41.8933 293.753 47.3183C284.432 52.7434 276.916 60.2781 271.503 69.9226C266.091 79.5671 263.385 90.4172 263.385 102.774C263.385 115.131 266.091 125.981 271.503 135.626C276.916 145.27 284.432 152.805 293.753 158.23C303.074 163.655 313.898 166.368 325.624 166.368C337.35 166.368 347.874 163.655 357.495 158.23Z" fill="#1A1A18" fill-opacity="0.02"/>
</svg>
