<svg width="1118" height="267" viewBox="0 0 1118 267" fill="none" xmlns="http://www.w3.org/2000/svg">
<path d="M236.944 4.08594L236.944 262.818H187.989L59.1381 105.773L59.1381 262.818H0L0 4.08594L49.347 4.08594L177.806 161.131L177.806 4.08594L236.944 4.08594Z" fill="#1A1A18" fill-opacity="0.04"/>
<path d="M350.592 249.683C329.119 237.942 312.331 222.288 300.229 201.938C288.126 181.587 281.879 158.889 281.879 133.451C281.879 108.013 288.126 85.3148 300.229 64.9645C312.331 44.6142 329.119 28.5687 350.592 17.2195C372.065 5.47893 396.271 0 422.82 0C449.368 0 473.574 5.87029 495.047 17.2195C516.52 28.9601 533.308 44.6142 545.411 64.9645C557.514 85.3148 563.76 108.013 563.76 133.451C563.76 158.889 557.514 181.587 545.411 201.938C533.308 222.288 516.129 237.942 495.047 249.683C473.574 261.032 449.758 266.902 422.82 266.902C395.881 266.902 372.065 261.032 350.592 249.683ZM464.204 205.46C476.307 198.416 486.067 188.632 493.095 176.109C500.122 163.585 503.636 149.105 503.636 133.451C503.636 117.797 500.122 103.317 493.095 90.7937C486.067 78.2705 476.307 68.4866 464.204 61.4423C452.101 54.398 438.046 50.8758 422.82 50.8758C407.593 50.8758 393.929 54.398 381.435 61.4423C369.332 68.4866 359.572 78.2705 352.544 90.7937C345.517 103.317 342.003 117.406 342.003 133.451C342.003 149.497 345.517 163.585 352.544 176.109C359.572 188.632 369.332 198.416 381.435 205.46C393.538 212.504 407.593 216.026 422.82 216.026C438.046 216.026 451.711 212.504 464.204 205.46Z" fill="#1A1A18" fill-opacity="0.04"/>
<path d="M849.732 4.08594L737.77 262.818H678.45L566.488 4.08594L631.308 4.08594L710.271 189.007L790.019 4.08594L849.732 4.08594Z" fill="#1A1A18" fill-opacity="0.04"/>
<path d="M1032.45 207.151L912.908 207.151L890.25 262.426H829.309L943.769 4.08594L1002.76 4.08594L1118 262.818H1055.49L1032.45 207.543V207.151ZM1013.7 161.677L972.677 62.4966L931.659 161.677H1013.3H1013.7Z" fill="#1A1A18" fill-opacity="0.04"/>
</svg>
