<svg xmlns="http://www.w3.org/2000/svg" viewBox="0 0 302 631" fill="none" preserveAspectRatio="none" xmlns:v="https://vecta.io/nano"><path fill-rule="evenodd" d="M72.237 2h4.001V0h-4.001v2zm7.981 0h3.984V0h-3.984v2zm7.985 0h3.971V0h-3.971v2zM64.267 2h4.007V0h-4.007v2zm31.92 0h3.961V0h-3.961v2zm7.968 0h3.968V0h-3.968v2zM56.32 2h3.958V0H56.32v2zm55.806 0h3.972V0h-3.972v2zM48.313 2h3.992V0h-3.992v2zm71.786 0h3.974V0h-3.974v2zM40.362 2h3.981V0h-3.981v2zm87.711 0h3.974V0h-3.974v2zM32.362 2h3.994V0h-3.994v2zm103.687 0h3.972V0h-3.972v2zM24.387 2h3.987V0h-3.987v2zm119.64 0h3.968V0h-3.968v2zM16.414 2h3.984V0h-3.984v2zm135.584 0h3.973V0h-3.973v2zM8.435 2h4.026V0H8.435v2zm151.532 0h3.98V0h-3.98v2zM2.5 1v1h0 0 0 .001.006.024.094H3h1.478V0H3h-.374-.094-.024-.006H2.5h0 0 0v1zm165.437 1h2.005l1.992.007.014-2L169.942 0h-2.005v2zm7.93.062l3.905.111.071-1.999-3.934-.112-.042 2zm7.846.282l3.888.229.134-1.996-3.92-.231-.102 1.997zm7.828.526l3.875.357.201-1.99-3.909-.36-.167 1.993zm7.803.789l3.861.497.273-1.981-3.897-.501-.237 1.986zm7.764 1.075l3.845.648.353-1.969-3.885-.655-.313 1.975zm7.71 1.384l3.824.814.438-1.951-3.867-.824-.395 1.961zm7.634 1.717l3.793.995.532-1.928-3.841-1.008-.484 1.941zm7.531 2.076l3.751 1.192.632-1.898-3.802-1.209-.581 1.914zm7.434 2.475l3.654 1.392.74-1.858-3.71-1.413-.684 1.879zm7.272 2.896l3.546 1.606.854-1.808-3.604-1.633-.796 1.835zm7.054 3.336l3.446 1.849.977-1.745-3.508-1.883-.915 1.779zm6.809 3.812l3.289 2.088 1.104-1.668-3.353-2.129-1.04 1.709zm6.507 4.31l3.115 2.343 1.235-1.573-3.181-2.392-1.169 1.623zm6.123 4.808l2.902 2.594 1.365-1.461-2.966-2.652-1.301 1.52zm5.692 5.321l2.658 2.846 1.493-1.331-2.721-2.914-1.43 1.398zm5.177 5.811l2.375 3.078 1.613-1.183-2.434-3.154-1.554 1.259zm4.598 6.267l2.068 3.298 1.72-1.021-2.12-3.381-1.668 1.104zm3.971 6.693l1.733 3.483 1.812-.846-1.776-3.571-1.769.935zm3.293 7.047l1.382 3.636 1.887-.665-1.418-3.727-1.851.757zm2.587 7.334l1.026 3.753 1.941-.481-1.051-3.846-1.916.573zm1.872 7.552l.668 3.836 1.978-.297-.684-3.927-1.962.389zm1.159 7.699l.317 3.882 1.996-.118-.323-3.971-1.99.207zm.461 7.774l.008 1.949-.031 1.945 2 .05.031-1.982-.009-1.992-1.999.03zm-.194 7.781l-.322 3.876 1.989.205.329-3.955-1.996-.126zm-.801 7.734l-.641 3.833 1.965.372.655-3.918-1.979-.287zm-1.449 7.632l-.979 3.756 1.923.55 1.002-3.846-1.946-.46zm-2.133 7.461l-1.33 3.644 1.861.732 1.364-3.736-1.895-.64zm-2.838 7.216l-1.686 3.492 1.779.915 1.73-3.583-1.823-.824zm-3.548 6.894l-2.035 3.304 1.675 1.092 2.089-3.391-1.729-1.005zm-4.236 6.496l-2.358 3.072 1.555 1.257 2.42-3.152-1.617-1.177zm-4.869 6.023l-2.657 2.825 1.423 1.406 2.724-2.898-1.49-1.333zm-5.453 5.525l-2.921 2.567 1.286 1.532 2.99-2.628-1.355-1.471zm-5.942 4.988l-3.131 2.294 1.148 1.638 3.2-2.344-1.217-1.588zm-6.369 4.465l-3.314 2.036 1.014 1.724 3.38-2.076-1.08-1.684zm-6.693 3.939L252 170.992l.887 1.792 3.53-1.825-.95-1.76zm-6.989 3.463l-3.559 1.55.77 1.846 3.616-1.575-.827-1.821zm-7.2 3.004l-3.645 1.335.662 1.888 3.698-1.355-.715-1.868zm-7.345 2.577l-3.742 1.148.563 1.919 3.79-1.163-.611-1.904zm-7.484 2.197l-3.814.973.472 1.944 3.858-.985-.516-1.932zm-7.588 1.849l-3.865.812.391 1.961 3.905-.82-.431-1.953zm-7.664 1.531l-3.898.662.316 1.975 3.935-.668-.353-1.969zm-7.721 1.242l-3.915.525.25 1.985 3.948-.53-.283-1.98zm-7.763.978l-3.918.4.188 1.992 3.948-.404-.218-1.988zm-7.798.739l-3.909.285.132 1.996 3.937-.288-.16-1.993zm-7.827.518l-3.89.182.08 1.998 3.916-.182-.106-1.998zm-7.856.317l-3.864.086.033 2 3.887-.087-.056-1.999zm-7.799.13l-1.995.005h-2.014v2h2.014l2.006-.005-.011-2zm-34.231.005l-2.058.003.005 2 2.053-.003h2.015v-2h-2.015zm10.074 0h-4.029v2h4.029v-2zm8.059 0h-4.029v2h4.029v-2zm8.059 0h-4.029v2h4.029v-2zm-32.307.024l-4.029.043.026 1.999 4.018-.042-.015-2zm-8.102.11l-4.018.092.052 1.999 4.005-.092-.039-1.999zm-8.099.213l-4.015.15.082 1.999 4-.15-.067-1.999zm-8.095.336l-4.021.218.118 1.997 4.003-.218-.1-1.997zm-8.089.479l-4.032.301.16 1.994 4.01-.3-.138-1.995zm-8.075.651l-4.046.401.211 1.989 4.019-.399-.184-1.991zm-8.047.855l-4.059.524.273 1.982 4.026-.52-.24-1.986zm-8.065 1.113l-3.999.665.348 1.969 3.96-.658-.309-1.976zm-8.015 1.422l-3.971.847.442 1.95 3.922-.836-.393-1.961zm-7.903 1.796l-3.954 1.083.56 1.92 3.892-1.066-.498-1.937zm-7.857 2.296l-3.848 1.362.707 1.871 3.77-1.334-.629-1.899zm-7.633 2.892l-3.71 1.718.889 1.791 3.614-1.673-.793-1.836zm-7.326 3.644l-3.496 2.155 1.106 1.666 3.384-2.085-.993-1.736zm-6.842 4.554l-3.158 2.651 1.346 1.479 3.037-2.549-1.225-1.581zm-6.092 5.554l-2.676 3.144 1.578 1.229 2.564-3.012-1.466-1.361zm-5.069 6.507l-2.097 3.551 1.763.944 2.012-3.407-1.678-1.088zm-3.896 7.256l-1.511 3.826 1.885.667 1.458-3.69-1.832-.803zm-2.752 7.74l-.995 3.979 1.953.43.967-3.866-1.925-.543zm-1.769 8.003l-.577 4.054 1.986.237.564-3.964-1.973-.327zm-.981 8.124l-.25 4.057 1.998.089.246-3.988-1.994-.158zm-.368 8.12L1 261.5l.017 2.059 2-.034L3 261.5l.014-2.034-2-.028zm.145 8.181l.297 4.051 1.991-.188-.291-3.97-1.997.107zm.771 8.111l.666 4.036 1.964-.376-.65-3.937-1.981.277zm1.545 8.032l1.109 3.941 1.908-.601-1.076-3.824-1.941.484zm2.467 7.808l1.62 3.769 1.808-.855-1.565-3.639-1.864.725zm3.512 7.413l2.164 3.493 1.658-1.119-2.083-3.361-1.739.987zm4.594 6.807l2.68 3.115 1.465-1.362-2.579-2.998-1.566 1.245zm5.587 6.015l3.109 2.677 1.251-1.56-3.001-2.585-1.359 1.468zm6.39 5.132l3.428 2.238 1.043-1.707-3.325-2.171-1.145 1.64zm6.977 4.27l3.651 1.839.855-1.808-3.56-1.794-.946 1.763zm7.387 3.502l3.792 1.494.695-1.876-3.716-1.464-.772 1.846zm7.622 2.833l3.879 1.206.563-1.919-3.816-1.186-.626 1.899zm7.804 2.293l3.959.975.452-1.949-3.906-.962-.505 1.936zm7.902 1.839l3.982.777.361-1.967-3.939-.769-.405 1.959zm8.005 1.473l3.976.61.286-1.979-3.94-.605-.322 1.974zm7.996 1.155l4.033.481.222-1.987-4.003-.478-.252 1.984zm8.04.9l4.059.368.168-1.993-4.033-.366-.194 1.991zm8.067.682l4.05.27.122-1.996-4.028-.269-.144 1.995zm8.081.496l4.041.187.083-1.998-4.022-.186-.102 1.997zm8.084.337l4.037.116.049-2-4.021-.115-.065 1.999zm8.084.2l4.036.053.02-1.999-4.022-.054-.034 2zm8.08.08l2.049.003h2.238v-2h-2.238c-.346 0-.692 0-1.037-.001a335.34 335.34 0 0 1-1.005-.002l-.007 2zm8.761.003h4.475v-2h-4.475v2zm8.95 0h4.475v-2h-4.475v2zm8.949 0h4.475v-2h-4.475v2zm8.95 0h1.737l2.01.001.002-2L166 335h-.5-1.737v2zm7.719.008l3.96.017.01-2-3.964-.017-.006 2zm7.937.043l3.955.037.022-1.999-3.961-.038-.016 2zm7.934.088l3.955.065.037-2-3.963-.065-.029 2zm7.929.147l3.96.1.055-1.999-3.969-.1-.046 1.999zm7.922.222l3.968.145.079-1.998-3.98-.146-.067 1.999zm7.91.316l3.978.203.11-1.997-3.994-.203-.094 1.997zm7.907.436l3.972.275.148-1.995-3.992-.275-.128 1.995zm7.917.589l3.92.361.196-1.99-3.946-.363-.17 1.992zm7.878.78l3.919.476.258-1.983-3.952-.48-.225 1.987zm7.81 1.019l3.923.627.337-1.972-3.965-.633-.295 1.978zm7.808 1.34l3.848.81.441-1.951-3.904-.822-.385 1.963zm7.659 1.733l3.797 1.061.575-1.916-3.869-1.081-.503 1.936zm7.541 2.27l3.673 1.378.75-1.854-3.766-1.413-.657 1.889zm7.256 2.947l3.47 1.784.974-1.747-3.588-1.844-.856 1.807zm6.795 3.804l3.145 2.274 1.241-1.568-3.282-2.374-1.104 1.668zm6.068 4.814l2.662 2.806 1.517-1.303a41.12 41.12 0 0 0-2.797-2.949l-1.382 1.446zm5.028 5.863l2.048 3.284 1.748-.973-2.154-3.453-1.642 1.142zm3.769 6.756l1.4 3.619 1.894-.641-1.462-3.781-1.832.803zm2.5 7.353l.825 3.817 1.968-.356-.855-3.952-1.938.491zm1.401 7.675l.359 3.889 1.996-.133-.369-3.993-1.986.237zm.528 7.8L299 395l-.021 2.046 2 .041L301 395l-.021-2.039-2 .042zm-.17 8.051l-.365 3.986 1.986.236.375-4.091-1.996-.131zm-.955 7.939l-.85 3.9 1.937.496.88-4.039-1.967-.357zm-1.994 7.715l-1.468 3.692 1.821.826 1.537-3.864-1.89-.654zm-3.284 7.213c-.669 1.149-1.392 2.25-2.169 3.305l1.611 1.186a38.78 38.78 0 0 0 2.286-3.484l-1.728-1.007zm-4.681 6.355c-.886.965-1.828 1.887-2.826 2.769l1.324 1.499a39.97 39.97 0 0 0 2.975-2.915l-1.473-1.353zm-5.925 5.245l-3.322 2.189 1.029 1.715 3.466-2.284-1.173-1.62zm-6.82 4.107l-3.631 1.671.779 1.843 3.749-1.726-.897-1.788zm-7.362 3.124l-3.807 1.262.585 1.913 3.897-1.292-.675-1.883zm-7.674 2.359l-3.916.954.441 1.951 3.983-.971-.508-1.934zm-7.876 1.786l-3.986.723.333 1.972 4.036-.732-.383-1.963zm-7.957 1.346l-4.006.546.251 1.984 4.044-.551-.289-1.979zm-8.051 1.023l-4.01.41.189 1.991 4.039-.413-.218-1.988zm-8.041.766l-4.076.312.142 1.995 4.098-.314-.164-1.993zm-8.086.575l-4.063.23.104 1.998 4.08-.231-.121-1.997zm-8.112.426l-4.048.167.075 1.998 4.063-.167-.09-1.998zm-8.122.308l-4.037.118.053 1.999 4.048-.118-.064-1.999zm-8.125.217l-4.03.08.036 1.999 4.038-.08-.044-1.999zm-8.123.145l-4.029.051.022 2 4.036-.051-.029-2zm-8.12.091l-4.034.028.011 2 4.04-.028-.017-2zm-8.118.048l-4.046.012.005 2 4.049-.012-.008-2zm-8.116.018l-2.061.001h-2.018v2h2.018l2.062-.001-.001-2zm-34.351.001l-2.004.005.01 2 1.994-.005h2.018v-2h-2.018zm10.091 0h-4.037v2h4.037v-2zm8.072 0h-4.036v2h4.036v-2zm8.072 0h-4.036v2h4.036v-2zm-32.191.047l-3.915.084.055 2 3.892-.084-.032-2zm-7.885.216l-3.896.177.103 1.997 3.872-.175-.079-1.999zm-7.876.409l-3.894.281.158 1.994 3.866-.279-.13-1.996zm-7.864.624l-3.887.396.218 1.988 3.856-.393-.187-1.991zm-7.845.865l-3.874.526.287 1.979 3.84-.521-.252-1.984zm-7.814 1.134l-3.87.675.364 1.967 3.83-.669-.324-1.973zm-7.764 1.439l-3.859.846.451 1.948 3.814-.836-.406-1.958zm-7.689 1.781l-3.837 1.041.55 1.923 3.786-1.027-.498-1.937zm-7.61 2.176l-3.766 1.253.661 1.888 3.708-1.234-.603-1.907zm-7.492 2.625l-3.658 1.489.786 1.839 3.594-1.462-.722-1.866zm-7.279 3.116l-3.565 1.77.925 1.773 3.494-1.735-.854-1.808zm-7.044 3.681l-3.387 2.057 1.077 1.685 3.31-2.01-1-1.732zm-6.69 4.28l-3.194 2.387 1.237 1.571 3.113-2.326-1.157-1.632zm-6.258 4.932l-2.922 2.706 1.399 1.429 2.842-2.631-1.319-1.504zm-5.689 5.569l-2.602 3.018 1.551 1.262 2.527-2.931-1.477-1.349zm-5.03 6.183l-2.241 3.3 1.686 1.075 2.177-3.204-1.621-1.171zm-4.289 6.719l-1.853 3.527 1.795.881 1.802-3.429-1.744-.979zm-3.512 7.147l-1.468 3.701 1.877.69 1.43-3.606-1.84-.785zm-2.75 7.469l-1.103 3.825 1.934.51 1.078-3.736-1.908-.599zm-2.033 7.683l-.769 3.892 1.969.348.754-3.813-1.954-.427zm-1.387 7.81l-.476 3.938 1.989.206.468-3.869-1.981-.275zm-.82 7.893l-.22 3.952 1.998.082.217-3.892-1.995-.142zm-.327 7.903L0 545.553l.016 2.019 2-.033L2 545.553l.013-1.965-2-.026zm.137 8.002l.277 3.989 1.992-.176-.271-3.915-1.997.102zm.71 7.982l.6 3.97 1.97-.343-.587-3.883-1.983.256zm1.379 7.908l.968 3.896 1.928-.531-.944-3.799-1.952.434zm2.137 7.74l1.379 3.778 1.859-.739-1.34-3.672-1.897.633zm2.974 7.473l1.816 3.597 1.757-.955-1.761-3.489-1.812.847zm3.851 7.076l2.25 3.343 1.623-1.168-2.179-3.239-1.694 1.064zm4.705 6.537l2.65 3.033 1.465-1.362-2.568-2.939-1.546 1.268zm5.48 5.897l2.994 2.689 1.293-1.525-2.907-2.612-1.38 1.448zm6.135 5.204l3.273 2.342 1.121-1.656-3.188-2.281-1.206 1.595zm6.659 4.513l3.469 1.998.959-1.756-3.389-1.952-1.038 1.71zm7.023 3.84l3.632 1.697.811-1.828-3.56-1.663-.883 1.794zm7.335 3.258l3.733 1.42.679-1.881-3.669-1.396-.743 1.857zm7.505 2.715l3.826 1.185.564-1.918-3.77-1.169-.62 1.902zm7.681 2.262l3.855.969.464-1.945-3.807-.957-.512 1.933zm7.76 1.851l3.909.792.376-1.965-3.867-.782-.418 1.955zm7.822 1.499l3.967.637.299-1.977-3.93-.632-.336 1.972zm7.881 1.193l3.969.495.231-1.987-3.936-.49-.264 1.982zm7.918.924l3.968.37.172-1.993-3.939-.367-.201 1.99zm7.939.685l3.966.261.119-1.997-3.941-.259-.144 1.995zm7.95.473l3.966.164.071-1.998-3.943-.164-.094 1.998zm7.952.285l3.969.078.03-2-3.95-.077-.049 1.999zm7.951.116l2.017.005h1.862v-2h-1.862c-.672 0-1.341-.001-2.008-.005l-.009 2zm7.603.005h3.724v-2h-3.724v2zm7.448 0h3.724v-2h-3.724v2zm7.448 0h3.724v-2h-3.724v2zm7.448 0h3.724v-2h-3.724v2zm7.448 0h3.724v-2h-3.724v2zm7.448 0h1.862 2.015v-2h-2.015-1.862v2zm7.906 0h4.03v-2h-4.03v2zm8.059 0h4.03v-2h-4.03v2zm8.059 0h4.03v-2h-4.03v2zm8.059 0h4.03v-2h-4.03v2zm8.059 0h4.03v-2h-4.03v2zm8.06 0h4.029v-2h-4.029v2zm8.059 0h4.029v-2h-4.029v2zm8.059 0h4.029v-2h-4.029v2zm8.059 0h4.029v-2h-4.029v2zm8.059 0h4.029v-2h-4.029v2zm8.059 0h4.029v-2h-4.029v2zm8.059 0h4.029v-2h-4.029v2zm8.059 0h4.03v-2h-4.03v2zm8.059 0h4.03v-2h-4.03v2zm8.059 0h2.015v-2h-2.015v2z" fill="#bccf17"/></svg>