<svg xmlns="http://www.w3.org/2000/svg" data-name="Слой 2" viewBox="0 0 40 40"><g data-name="Слой 1"><path d="m21.58 0 3.35.6c15.41 4 20.38 23.49 8.41 34.32C22.2 44.99 4.24 39.28.64 24.91l-.61-3.35c.06-1.04-.08-2.17 0-3.2C.78 8.78 8.88.71 18.45 0zm.36 27.48c.61-.63.09-4.07 1.98-2.59 1.14.89 2.03 2.77 3.63 2.93.38.04.79-.02 1.17 0 1.37.07 4.87.6 3.41-1.85-.34-.56-.94-1.25-1.38-1.74-.38-.41-2.17-2.02-2.27-2.34-.15-.47.14-.89.37-1.27.93-1.49 3.4-4 3.64-5.66.06-.43-.05-.62-.45-.76-.64-.22-3.68-.18-4.49-.12-.66.05-.82.09-1.12.67-.63 1.27-1 2.4-1.83 3.63-.24.36-1.3 1.76-1.61 1.91-.75.35-.83-.92-.85-1.4-.07-1.33.22-2.87.07-4.22-.04-.42-.27-.8-.68-.96-.71-.27-3.43-.24-4.28-.18-.42.03-1.2.22-1.38.65-.24.56.35.46.69.66.38.21.59.58.64 1 .12 1.02.21 3.34-.19 4.25-.15.34-.31.38-.64.25-.61-.23-1.89-2.34-2.25-2.98-.43-.78-.77-1.86-1.19-2.56-.31-.51-.73-.68-1.3-.73-.82-.07-2.82-.11-3.6 0-.26.03-.47.25-.51.52-.05.41.86 2.22 1.1 2.72 2.07 4.32 5.16 9.82 10.41 10.44.67.08 2.43.23 2.9-.26v-.02Z" style="fill:#4a68d7"/><path d="M21.94 27.48c-.47.49-2.22.34-2.9.26-5.25-.62-8.33-6.13-10.41-10.44-.24-.49-1.16-2.31-1.1-2.72.03-.26.24-.48.51-.52.78-.11 2.78-.07 3.6 0 .58.05 1 .22 1.3.73.42.69.76 1.78 1.19 2.56.36.64 1.63 2.75 2.25 2.98.34.13.49.08.64-.25.39-.92.31-3.22.19-4.25-.05-.43-.25-.79-.64-1-.36-.2-.94-.12-.69-.66.19-.42.96-.61 1.38-.65.85-.06 3.58-.09 4.28.18.41.16.63.54.68.96.15 1.35-.15 2.89-.07 4.22.02.48.11 1.75.85 1.4.32-.15 1.37-1.55 1.61-1.91.83-1.23 1.2-2.36 1.83-3.63.29-.59.45-.63 1.12-.67.81-.06 3.85-.11 4.49.12.4.14.52.34.45.76-.24 1.66-2.72 4.17-3.64 5.66-.23.38-.53.81-.37 1.27.11.32 1.89 1.93 2.27 2.34.44.48 1.05 1.18 1.38 1.74 1.46 2.44-2.02 2.02-3.4 1.95-.38-.02-.81-.05-1.19-.09-1.6-.16-2.49-2.03-3.63-2.93-1.88-1.48-1.38 1.96-1.98 2.59v.02Z" style="fill:#fcfcfd"/></g></svg>