<svg xmlns="http://www.w3.org/2000/svg" data-name="Слой 2" viewBox="0 0 40 40"><g data-name="Слой 1"><circle cx="20" cy="20" r="20" style="fill:#e93323"/><path d="M30.55 16.53c-.05-.76-.24-1.49-.57-2.11-.5-.94-1.31-1.64-2.41-1.84a5 5 0 0 0-.58-.06c-2.12-.05-5.5-.14-8.63-.14-2.1 0-4.08.04-5.49.16-.26.02-.51.07-.74.14-.83.25-1.49.79-1.95 1.5-.41.63-.66 1.39-.72 2.2-.15 1.99-.14 5.18 0 7.19.08 1.09.49 2.05 1.16 2.76.22.23.46.43.74.6.49.31 1.07.51 1.72.58 2.2.06 4.45.1 6.7.11h.87c2.11 0 4.22-.04 6.26-.11.2 0 .4-.03.59-.07.96-.2 1.75-.79 2.28-1.58.43-.64.7-1.41.75-2.21.15-2 .13-5.1 0-7.11Zm-13.36 6.68v-6.4l5.55 3.24z" style="fill:#fefefe"/></g></svg>